<?xml version="1.0" encoding="UTF-8" standalone="no"?>
<svg xmlns:rdf="http://www.w3.org/1999/02/22-rdf-syntax-ns#" xmlns="http://www.w3.org/2000/svg" height="96.08808" width="86.13287" version="1.1" xmlns:cc="http://creativecommons.org/ns#" xmlns:dc="http://purl.org/dc/elements/1.1/" viewBox="0 0 86.13287 96.08808"><path d="M3.6347,59.7328l4.4062-.8844-.1701-.8479-4.4062.8844a1.45109,1.45109,0,1,1-.5705-2.8412l4.4062-.8844-.1701-.8476-4.4062.8844A2.241,2.241,0,0,0,.9147,57.9142,2.24916,2.24916,0,0,0,3.6347,59.7328Z" fill="#7b003f" fill-rule="evenodd"/><polygon points="9.919 64.469 5.091 66.231 8.893 61.658 8.564 60.756 2.318 63.036 2.614 63.848 7.442 62.086 3.64 66.659 3.969 67.56 10.216 65.281 9.919 64.469" fill="#7b003f" fill-rule="evenodd"/><rect x="5.06004" y="68.61693" width="6.65062" height="0.89313" transform="translate(-30.12096 11.1209) rotate(-26.68372)" fill="#7b003f"/><polygon points="14.497 72.884 9.173 74.269 12.629 69.985 12.135 69.218 7.805 74.777 8.145 75.304 14.991 73.651 14.497 72.884" fill="#7b003f" fill-rule="evenodd"/><polygon points="13.562 77.757 15.444 79.921 16.032 79.41 14.15 77.246 15.79 75.819 17.673 77.983 18.261 77.472 15.811 74.656 10.795 79.019 13.244 81.835 13.832 81.324 11.95 79.16 13.562 77.757" fill="#7b003f" fill-rule="evenodd"/><path d="M21.3506,80.2948l-1.7851-1.5084-4.2921,5.0803.6602.5579,1.3674-1.6185,1.0452.8831-.3587,2.4704.7548.6377.3924-2.6285a2.26647,2.26647,0,0,0,2.2159-3.874Zm-.3778,2.6408a1.40555,1.40555,0,0,1-2.0379.2187L17.81,82.204l1.9129-2.2645,1.1249.9506A1.41064,1.41064,0,0,1,20.9728,82.9356Z" fill="#7b003f" fill-rule="evenodd"/><path d="M26.1338,83.4984a1.85331,1.85331,0,0,0-2.7018.5514c-.6447,1.0866.0619,1.9255.8662,2.8223.4261.4734.8735,1.0041.4762,1.6739a1.16708,1.16708,0,0,1-1.7171.307,1.40414,1.40414,0,0,1-.5304-2.0486l-.7434-.441a2.17892,2.17892,0,0,0,.8436,3.1402,2.01184,2.01184,0,0,0,2.9197-.5655c.6738-1.1358-.0964-2.0345-.8568-2.8941-.449-.5093-.8393-1.0056-.4855-1.6021a1.04513,1.04513,0,0,1,1.5399-.2684,1.15507,1.15507,0,0,1,.4305,1.7131l.7437.4413A1.97853,1.97853,0,0,0,26.1338,83.4984Z" fill="#7b003f" fill-rule="evenodd"/><rect x="25.42702" y="88.2772" width="6.64871" height="0.8928" transform="translate(-64.12495 80.20854) rotate(-66.80647)" fill="#7b003f"/><polygon points="35.869 87.615 31.73 86.404 31.512 87.152 33.162 87.634 31.513 93.269 32.343 93.512 33.992 87.877 35.651 88.363 35.869 87.615" fill="#7b003f" fill-rule="evenodd"/><path d="M38.2184,87.9751l-3.1647,6.2801.9036.1228.4759-.9611,2.6729.3637.2112,1.0544.9036.1231-1.3813-6.8983ZM36.803,92.6717l1.5446-3.2506.6011,3.5425Z" fill="#7b003f" fill-rule="evenodd"/><path d="M44.3639,91.06c-.6537-.184-1.2511-.389-1.2777-1.0823-.0247-.6361.4543-1.035,1.1472-1.0616a1.15541,1.15541,0,0,1,1.2923,1.2051l.864-.0334a1.97839,1.97839,0,0,0-2.1958-1.95,1.85315,1.85315,0,0,0-1.9695,1.9305c.0488,1.2626,1.0974,1.5832,2.2604,1.8996.6148.1663,1.2787.3689,1.309,1.1475.0275.7122-.5065,1.1605-1.2756,1.1902a1.40383,1.40383,0,0,1-1.5578-1.4323l-.864.0334a2.17905,2.17905,0,0,0,2.4138,2.1791,2.01232,2.01232,0,0,0,2.1454-2.0607C46.6046,91.7053,45.4694,91.3689,44.3639,91.06Z" fill="#7b003f" fill-rule="evenodd"/><polygon points="54.62 91.693 51.362 87.257 50.495 87.539 54.762 93.145 55.358 92.952 55.509 85.911 54.642 86.193 54.62 91.693" fill="#7b003f" fill-rule="evenodd"/><rect x="58.07168" y="84.77056" width="0.8927" height="6.64878" transform="translate(-32.24632 33.80948) rotate(-25.52214)" fill="#7b003f"/><polygon points="63.19 88.46 60.09 83.473 59.356 83.93 62.867 89.578 65.449 87.973 65.038 87.311 63.19 88.46" fill="#7b003f" fill-rule="evenodd"/><polygon points="66.072 78.978 69.418 82.878 63.801 80.926 63.073 81.55 67.403 86.597 68.059 86.034 64.713 82.134 70.329 84.086 71.057 83.461 66.728 78.415 66.072 78.978" fill="#7b003f" fill-rule="evenodd"/><polygon points="73.148 80.076 71.512 78.699 73.359 76.503 72.763 76.002 70.915 78.198 69.25 76.797 71.098 74.601 70.501 74.099 68.097 76.957 73.187 81.239 75.591 78.381 74.995 77.88 73.148 80.076" fill="#7b003f" fill-rule="evenodd"/><polygon points="73.668 69.243 78.057 71.92 72.11 71.799 71.61 72.618 77.289 76.082 77.739 75.343 73.35 72.667 79.297 72.788 79.797 71.969 74.118 68.505 73.668 69.243" fill="#7b003f" fill-rule="evenodd"/><path d="M81.0844,64.6699c-1.2175-.5105-2.0014.3763-2.7475,1.2477-.4425.5149-.8804.9701-1.5199.702a1.04505,1.04505,0,0,1-.4784-1.488,1.15534,1.15534,0,0,1,1.6374-.6627l.3343-.7972a1.97791,1.97791,0,0,0-2.6937,1.1677,1.85286,1.85286,0,0,0,.9187,2.5993c1.1652.4883,1.8984-.3268,2.6754-1.2474.4101-.487.8739-1.0034,1.5923-.7023a1.16714,1.16714,0,0,1,.5405,1.6584,1.40337,1.40337,0,0,1-1.9553.8074l-.3342.7972a2.17852,2.17852,0,0,0,2.9933-1.2684A2.01172,2.01172,0,0,0,81.0844,64.6699Z" fill="#7b003f" fill-rule="evenodd"/><rect x="80.03011" y="58.23938" width="0.89279" height="6.64919" transform="translate(-1.61713 120.95443) rotate(-73.29952)" fill="#7b003f"/><path d="M83.5368,54.8881c-1.2969-.2483-1.881.7811-2.4317,1.7877-.3269.5952-.6615,1.1308-1.3427,1.0003a1.045,1.045,0,0,1-.7749-1.3575,1.15555,1.15555,0,0,1,1.4657-.9864l.1627-.8489a1.978,1.978,0,0,0-2.3953,1.698,1.853,1.853,0,0,0,1.4351,2.3545c1.241.2378,1.7901-.7113,2.3613-1.7722.3009-.5613.6481-1.1624,1.4131-1.0155a1.1668,1.1668,0,0,1,.8711,1.5112,1.40383,1.40383,0,0,1-1.7471,1.1936l-.1626.8488a2.17844,2.17844,0,0,0,2.6677-1.8584A2.012,2.012,0,0,0,83.5368,54.8881Z" fill="#7b003f" fill-rule="evenodd"/><path d="M35.6337,65.4904a.30639.30639,0,1,0,.1931-.579A.30639.30639,0,1,0,35.6337,65.4904Z" fill="#7b003f" fill-rule="evenodd"/><path d="M67.2379,52.5006V26.1413l-48.9454-.0175c0,10.6324-.1372,21.4017-.0726,31.9864H47.1483c.3497-1.9079,2.7985-4.162,1.6275-6.3115l-1.4039-1.6495a6.89241,6.89241,0,0,0,1.1583-.4564l1.5442,1.5267a4.9227,4.9227,0,0,0,.5441,1.5094,13.61727,13.61727,0,0,0-1.4565,3.8958c-.5018.1212-.7306.5323-.4513,1.4855h1.6099c.0723-1.1895.755-1.8908,1.1753-2.942.5267-1.3161.5792-2.6676.0352-3.352-1.1759-.9301-2.1235-1.9128-3.3519-2.9658-.1404-.0352-.2808-.1579-.4212-.1229s.2106.509.3861.5791c-2.2464.9478-4.4576.6669-6.8092.3862a3.68119,3.68119,0,0,1,.1755-1.5093,3.284,3.284,0,0,1,.6669,1.1759,8.712,8.712,0,0,0,.9476-1.4215l1.4216,1.4565a12.25686,12.25686,0,0,1,.6142-3.3168,23.16105,23.16105,0,0,0,3.0886.5089c.1404.5792-.1052,1.5443.4212,1.5443.5267.0177.2632-1.1582.2282-1.5443a12.64617,12.64617,0,0,0,1.6497.0527c.1228.544.035,1.4391.4914,1.4214.4738-.0175.2105-1.0353.1929-1.4741a8.24693,8.24693,0,0,0,1.4918-.2456,4.91711,4.91711,0,0,0,.7196,5.3876l-1.4215,4.9138c-.4902.1577-.5788.6121-.2657,1.4679H67.2203C67.2223,56.5521,67.2379,54.326,67.2379,52.5006ZM40.3345,29.4583l.2458-1.4743.3861,1.5093,7.5112-.2456,2.1058.5792-2.0708.5263-7.4937.0352-.2105,1.5444-.4212-1.4215h-.2631a1.212,1.212,0,0,0-.0878-1.0004ZM36.3333,45.2a5.874,5.874,0,0,1,2.8079-.4738,3.66034,3.66034,0,0,1,.1053.5792,11.30616,11.30616,0,0,0-3.2116.6142A1.5082,1.5082,0,0,1,36.3333,45.2Zm-.1755-2.527a11.35454,11.35454,0,0,1,4.4048-2.2287c.1229,0,.1581.0877.2809.0877a10.2666,10.2666,0,0,0-4.5628,3.6853C36.2105,43.7084,36.2105,43.1644,36.1578,42.673Zm.544,1.8251a8.75294,8.75294,0,0,1,4.2296-3.4923,1.39245,1.39245,0,0,0,.5438,1.2459l-1.3511,1.3514-.8776.6493A10.86069,10.86069,0,0,0,36.7018,44.4981Zm6.2651-9.3538a3.00065,3.00065,0,0,0,.1932-3.3696,3.66431,3.66431,0,0,1,2.0357.0702,3.75819,3.75819,0,0,1-.5617,2.7027l.3862.5792c-.3685.0701-1.0004.1579-1.4917.2281a7.51514,7.51514,0,0,0,.1229,1.5618,7.15531,7.15531,0,0,1-1.3513.2456A3.51285,3.51285,0,0,1,42.9669,35.1443Zm-.1754-.5617a2.60405,2.60405,0,0,1-.6142-2.0533c.0175-.2456.2456-.6141.5265-.579C43.2127,32.196,43.318,34.2492,42.7915,34.5826Zm.9652,2.773a13.74743,13.74743,0,0,0,.4914,1.9479c-.3686.1228-1.1232.4212-1.6497.5441a8.17317,8.17317,0,0,1-.2632-2.1938C42.8617,37.5661,43.2653,37.4783,43.7567,37.3556Zm.702,2.4218a6.26516,6.26516,0,0,0,.351.6669,16.77624,16.77624,0,0,0-2.9659,1.5091c-.3159-.3157-.7195-.9126-.2457-1.1407Zm-4.2821,4.3873L41.5456,45.2a.36408.36408,0,0,1-.0177.1931c-.509-.035-1.3162-.1052-1.8076-.1404a6.38916,6.38916,0,0,1-.0878-.7019A3.459,3.459,0,0,1,40.1766,44.1647Zm.386-.316a10.79416,10.79416,0,0,1,4.3875-2.9833,8.70393,8.70393,0,0,0,.9828,1.2986c-.158.3334-.5792.6319-1.4216.86-1.0178.5265-2.2639,1.6672-2.6675,1.8778Zm3.4923-8.1253,3.9487-.5966c.5442,1.439.8074,5.9842-.7896,7.3356C45.4591,41.5673,44.1253,38.11,44.0549,35.7234Zm-4.8961-6.2651a.76736.76736,0,0,1,.5615.7897,1.061,1.061,0,0,1-.3334.6493c.0527.6493.1931,2.4043.2633,3.4396l2.65,1.0707a3.33467,3.33467,0,0,0-.3862,1.2986l-3.4398-1.5093c0-1.4566.0527-2.9132.1054-4.3347A.77062.77062,0,0,1,39.1588,29.4583Zm-1.8251.4738a.2985.2985,0,0,1,.4211-.0527.39636.39636,0,0,1,.0527.4563.29228.29228,0,0,1-.4388.0175C37.2108,30.248,37.2458,30.0725,37.3337,29.9321Zm1.2109,8.2482a6.71057,6.71057,0,0,1,1.5969,1.8778,4.45319,4.45319,0,0,0-.7019.1931,5.46524,5.46524,0,0,0-2.6149-2.3693l.1755.4388a4.818,4.818,0,0,1,1.9128,2.0884,10.448,10.448,0,0,0-2.9658,1.8076c.0877-.509-.1228-1.0354.1052-1.6497.3862-.9827.5441-2.0357-.5967-2.7376a2.69728,2.69728,0,0,0-.8422-.2107c-.0351-.3158-.0351-.6669-.0878-.9652A6.65755,6.65755,0,0,1,38.5446,38.1803Zm-3.001,3.1414-.544-.0351-.3335-3.1063a1.319,1.319,0,0,1,1.1933.7546C36.1403,39.4614,35.4734,40.725,35.5436,41.3217Zm-.9477,1.7023a1.06687,1.06687,0,0,1-1.088-1.0004,5.90462,5.90462,0,0,1,2.0182-.2281C35.6313,42.515,35.2803,43.024,34.5959,43.024Zm0-1.7198c-.2632.0525-.7897.1402-1.1584.2281l-.07-.0702-.702-2.8956a2.83747,2.83747,0,0,1,1.5268-.4565Zm-1.9656-5.1596a1.23182,1.23182,0,0,1,.86.5968s.2632-.0352.5614-.0527a8.4818,8.4818,0,0,1,.1054.9126,3.71387,3.71387,0,0,0-1.6145.5087l-.2633-.5439c-.3684-.5967-.1754-.4738-.4738-.8072a2.157,2.157,0,0,1,1.0004.4211C32.7357,36.794,32.6655,36.4781,32.6303,36.1446ZM28.4009,49.7103a12.12052,12.12052,0,0,1,.509-1.9479,17.89975,17.89975,0,0,1,3.5976-2.0885,16.006,16.006,0,0,1,3.0713.158,6.88115,6.88115,0,0,0-.1581.9653c-.9301-.0703-1.8251-.1405-2.8079-.1405a9.21539,9.21539,0,0,0-2.8956,1.5795,3.12175,3.12175,0,0,0,.158,1.439c-.3511.0351-1.018.0176-1.4392.0351Zm2.3342.8073a1.64568,1.64568,0,0,0,0,1.1232,10.95079,10.95079,0,0,1-1.1233.1229,3.36848,3.36848,0,0,1,.4213-1.6145c.6669-.6846,1.5267-1.4567,2.141-2.0359a5.17609,5.17609,0,0,1,.8424-.7721l3.8432-.2632.0177-.123a2.06216,2.06216,0,0,0-.9829-.1228l.0527-.4388a9.38908,9.38908,0,0,1,3.3168-.6667,22.85962,22.85962,0,0,1-.1228,3.1062c-1.4039.2632-4.0012-.5615-5.6333-.5265Zm10.161-1.5093a3.14459,3.14459,0,0,0,0,1.1409c.0353.3684-.7195.4561-1.1758.5438a11.06365,11.06365,0,0,0-2.0883.8776,1.868,1.868,0,0,1,.9651-1.3689,3.21863,3.21863,0,0,0,.8073-.5089,14.10364,14.10364,0,0,0,.3686-3.9838c.3861.0352,1.3688.1052,1.8076.1229C41.721,47.0253,41.0366,47.9905,40.8961,49.0083Zm4.1944-4.2118a7.574,7.574,0,0,0-.9302,3.4924l-1.1407-1.1407c-.1929.3509-.4562.9301-.7194,1.3161-.1229-.2281-.3862-.5967-.5792-.895a4.21257,4.21257,0,0,0,.2281-2.1936,15.117,15.117,0,0,1,2.685-1.8954c.895-.3159,1.4918-.6144,1.6673-1.0004a7.68337,7.68337,0,0,0,.6142.4739,4.97939,4.97939,0,0,1-2.8255,1.7199A1.93692,1.93692,0,0,0,45.0905,44.7965Zm.2632.7722a4.39548,4.39548,0,0,1,.4036-.9652,4.64634,4.64634,0,0,0,1.3338-.9303,4.29464,4.29464,0,0,1,1.0003,2.3166A12.81549,12.81549,0,0,1,45.3537,45.5687Zm3.3695.4387a8.003,8.003,0,0,0-1.1583-2.8782,1.86444,1.86444,0,0,1,1.7023.5792,4.49949,4.49949,0,0,1,1.1232,2.3166C50.0744,46.0074,49.1443,46.0425,48.7232,46.0074Zm8.3009,1.5442a1.9303,1.9303,0,0,1,.4738,1.0882,1.98772,1.98772,0,0,0-1.1582-.3861,1.99463,1.99463,0,0,1,.1229,1.2284l-.0175.0351a3.9876,3.9876,0,0,0-.7196-.8423c-.6844-.737-.4388-1.8954-.0527-2.9835,0-.4562-.2282-.8949-.7371-.8949-1.3162.2106-2.4745,1.3162-3.7907,1.2109-.4563-.9478-.7196-2.4394-1.983-3.0009a4.76587,4.76587,0,0,1,3.4923,2.0707c1.1406-.9827,2.5095-2.1585,4.1417-1.7023a1.504,1.504,0,0,1,1.0354,1.2461c.1053,1.0003-.509,2.2814.544,3.1589C57.9542,48.008,57.4452,47.4113,57.0241,47.5516Z" fill="#7b003f" fill-rule="evenodd"/><path d="M65.6235,59.0702H18.2322a25.4834,25.4834,0,0,0,5.9394,15.6129c9.7047,11.5301,28.7283,11.3546,38.0121-.9125a24.19152,24.19152,0,0,0,5.0302-14.7004h-.9238a24.18135,24.18135,0,0,1-2.1059,9.2425,1.67243,1.67243,0,0,1-.6668.3862c-.9828.4036-1.5093.3684-2.5446.7019-.2108.1053-.4916.193-.5441.3509a9.09865,9.09865,0,0,0,2.1059-.2807c-.3159.193-.544.3861-.7546.4914a61.7352,61.7352,0,0,1-7.6341,3.7905,13.01846,13.01846,0,0,0-.6668-7.0899,19.03621,19.03621,0,0,0,2.2989-.4736,5.58838,5.58838,0,0,1,1.1407,3.2816,1.98028,1.98028,0,0,0,.4037-1.3865,7.39326,7.39326,0,0,0-.93-2.1936c.6317-.2807,1.5092-.7722,2.176-1.0178.6844-.2633,1.6496-.4563,2.0359-.6494-.2459-.193-.9478-.0527-1.3515,0a22.45507,22.45507,0,0,1,5.7211-2.5622c-.0876-.3334-1.088,0-1.4214,0A6.91723,6.91723,0,0,0,65.6235,59.0702ZM34.4379,64.68l-.035,12.6179a2.12955,2.12955,0,0,0-.4564-.4036l.0352-12.6354c0-.3686.07-.6144.3158-.632,1.1232-.1051,2.6676-.2631,3.9487-.4562,1.3162-.1931,2.9131-.3334,4.2645-.5265.1052-.1229.0702-.2456-.0703-.3685l-8.4587.9827c-.2282.1054-.4388.2984-.4388.3861,0,.2106-.035.8073-.035.9828,0,4.1944-.0176,8.1429-.0527,12.0916l-.4915-.1052c-.0702-3.9488-.035-8.5467-.035-12.8111a3.07285,3.07285,0,0,1,.035-.825c.0704-.1577.4915-.1577.4915-.1577,2.9308-.2986,5.9492-.7197,8.8977-1.0882.1402-.0527.1227-.2282-.0527-.3336-2.8958.316-6.3355.5792-9.1433.9128a1.04764,1.04764,0,0,0-.667.2631,1.45244,1.45244,0,0,0-.1229.7371c0,4.3698.1581,8.8801.0527,13.3026h-.4036c-.0175-4.5103-.0702-10.1964-.0702-14.0572a.70439.70439,0,0,1,.7371-.8073c3.6327-.3158,5.8791-.4211,8.8098-.7897.8601,0,1.6145.0878,2.0183.7195a.89647.89647,0,0,1-.4388,1.3163,3.87387,3.87387,0,0,1-1.1407.2631q-3.44865.3951-6.8969.7898A.7275.7275,0,0,0,34.4379,64.68Zm7.2304-.8424v1.8428l-.4036-.0177a1.71686,1.71686,0,0,1-1.2284-1.6846C40.5101,63.9078,41.1418,63.8903,41.6683,63.8376ZM34.8592,65.031c-.0177-.3159.0527-.5792.4036-.6142.351-.0352.9652-.0702,1.5092-.1054-.0175,1.2636-.509,1.878-1.9128,1.878C34.8592,65.8207,34.8767,65.4872,34.8592,65.031Zm.6317,13.513a.56287.56287,0,0,1-.544-.3861V76.4733a2.05955,2.05955,0,0,1,1.2986.421,1.9405,1.9405,0,0,1,.6669,1.5445A12.94309,12.94309,0,0,1,35.4909,78.544Zm1.8953-.1404a2.44921,2.44921,0,0,0-.8598-1.9129,2.50189,2.50189,0,0,0-1.5795-.4212l-.0702-9.4591a2.04922,2.04922,0,0,0,2.3341-2.3515l2.3516-.2633a2.1089,2.1089,0,0,0,2.1234,2.1761l.2633,9.2836a2.25416,2.25416,0,0,0-1.9304,2.65ZM40.5101,78a1.6902,1.6902,0,0,1,1.4039-2.0182c.0526.0175.0877,1.8076.0877,1.8426A13.30329,13.30329,0,0,1,40.5101,78Zm1.6672-14.2676a2.24022,2.24022,0,0,0,1.4565-.6494.78141.78141,0,0,1-.3509.9827,2.901,2.901,0,0,1-1.1233.4037C42.1596,64.3291,42.1071,63.7499,42.1773,63.7324Zm0,1.2284a2.62231,2.62231,0,0,0,1.4742-.5792v2.7202c-.158.5616-.7723.7019-1.4742.895Zm.0527,3.4923a3.05374,3.05374,0,0,0,1.4741-.6317.53356.53356,0,0,1,0,.7019,2.71959,2.71959,0,0,1-1.4391.5265A2.22978,2.22978,0,0,1,42.23,68.4531Zm.035,1.0706a3.205,3.205,0,0,0,1.3163-.3862l.035,2.4043-1.2811.7196Zm.1579,4.1942c.158.035.2282-.0175.3159.2457.0527.1404.3685.1931.6494.316a.72373.72373,0,0,0,.544.2806c-.0177.3159,0,1.1759,0,1.527,0,.4386-1.1934.7019-1.4741.6844Zm1.404,3.6504a3.2162,3.2162,0,0,1-1.3338.4211l-.0175-.4563a3.1946,3.1946,0,0,0,1.597-.6492A.60674.60674,0,0,1,43.8269,77.3683Zm9.8102-3.5977c-.0703.3159-.2457.2982-.4038.2105a5.60987,5.60987,0,0,1-.8599-2.8254,4.02644,4.02644,0,0,1,1.3514-.895A12.371,12.371,0,0,1,53.6371,73.7706Zm.0176-3.9662c-2.3342.9477-3.9135,3.6502-6.6689,4.0189a10.28315,10.28315,0,0,0,1.5093-.9302c.0175-.1229-.0527-.1579-.1756-.1579a11.3804,11.3804,0,0,1-2.5271,1.2109l-1.5794.3158c-.0877-.0175-.2456.0352-.3335-.1579.3862-.2106,1.5971-.5615,2.2288-.8775a10.06674,10.06674,0,0,0,1.7199-1.0178c.0525-.1053.0175-.2632-.2106-.2107a17.55859,17.55859,0,0,1-1.6145.8424,15.80354,15.80354,0,0,1-2.3693.8952c-.2456.0526-.5089-.0177-.5615-.1404.0878-.0527-.035-.1054.2632-.2458.3686-.193,1.3864-.5265,2.0884-.8951a11.77577,11.77577,0,0,0,1.7901-1.0704c.0526-.1405-.0177-.2282-.2106-.158a20.71159,20.71159,0,0,1-3.9487,1.8251,1.06992,1.06992,0,0,1-.6493.0527v-.3685l2.0358-1.0705a9.81613,9.81613,0,0,0,1.7198-1.0705l1.562-1.369v-.228a6.12393,6.12393,0,0,1-3.51,0v-.1581c.5967-.1579,1.2461-.2456,1.8251-.4035.9828-.2632,1.8955-.7196,2.9835-.9653,1.1932-.1755,2.7026-.193,4.0188-.3334A6.29543,6.29543,0,0,1,53.6547,69.8044Z" fill="#7b003f" fill-rule="evenodd"/><path d="M35.9162,77.2955a.37819.37819,0,0,0-.2808.7021A.37819.37819,0,0,0,35.9162,77.2955Z" fill="#7b003f" fill-rule="evenodd"/><path d="M40.3952,70.5631c-.0174-.6844-.4562-.8248-1.0528-.8599a1.22341,1.22341,0,0,0-.2809-.895c-.7371-.351-1.6496.0527-1.4215,1.0002-.4036.0703-1.1582.3334-1.1055,1.0179.0525.6844.4563.8775,1.246.8423.035.5792.4035,1.2286.9827,1.1408s.7019-.7371.7019-1.4215C39.9214,71.3879,40.4654,71.1423,40.3952,70.5631Zm-1.3511.544c.0174.509.1754,1.1583-.3159,1.2284-.7021.0704-.3862-.7897-.5792-1.0705-.2984-.1227-1.0003.1931-1.1582-.3509.0702-.702.6844-.6318,1.123-.7195-.0527-.509-.3333-.9301.4037-1.1057.5967.0527.3686.5616.4213.9302.3859.0175,1.0528-.0704,1.0704.5088S39.4651,70.9317,39.0441,71.1071Z" fill="#7b003f" fill-rule="evenodd"/><path d="M47.3368,40.6899c-.0702-.4037-.1755-.8598-.2282-1.2285.3861-.0527.6319-.0702.8775-.1228l-.1054-.6494c-.3158.0878-.386.0703-.8248.1931-.0877-.4037-.1403-.737-.228-1.2285.3159-.0351.5966-.0525.8774-.0877-.0175-.193-.035-.4038-.0527-.6143-.2105.0528-.6844.1053-.9301.1932a6.91062,6.91062,0,0,1-.1579-1.2811c-.1404.0525-.544.0702-.6669.1227a8.80359,8.80359,0,0,1,.2633,1.2461c-.2633.035-.5265.0877-.9301.1229l.0876.579c.316-.0527.7898-.1754.9478-.1754.0702.4913.1404.8248.1754,1.2109a5.483,5.483,0,0,1-.9126.1404l.1405.6492a6.11165,6.11165,0,0,0,.86-.2282,10.87008,10.87008,0,0,1,.035,1.2812A4.18958,4.18958,0,0,0,47.3368,40.6899Z" fill="#7b003f" fill-rule="evenodd"/><path d="M41.4696,76.9104a.33425.33425,0,1,0-.3335.579C41.5749,77.7,41.8205,77.0683,41.4696,76.9104Z" fill="#7b003f" fill-rule="evenodd"/><path d="M33.9115,39.5141a.43374.43374,0,0,0-.0878-.4913c-.1579-.0352-.2104-.1229-.3685,0a.614.614,0,0,0,.0351.5263C33.6833,39.6545,33.8763,39.672,33.9115,39.5141Z" fill="#7b003f" fill-rule="evenodd"/><path d="M40.8945,64.9457a.29239.29239,0,0,0,.158-.5617C40.6488,64.2261,40.5435,64.893,40.8945,64.9457Z" fill="#7b003f" fill-rule="evenodd"/><polygon points="7.063 39.219 0.925 35.771 0.765 36.669 5.606 39.277 0.16 40.062 0 40.96 6.953 39.836 7.063 39.219" fill="#7b003f" fill-rule="evenodd"/><rect x="4.37601" y="30.9097" width="0.89318" height="6.65045" transform="translate(-29.42303 29.48891) rotate(-74.09141)" fill="#7b003f"/><polygon points="9.912 29.747 9.185 29.466 8.402 31.495 2.925 29.382 2.614 30.188 8.817 32.582 9.912 29.747" fill="#7b003f" fill-rule="evenodd"/><polygon points="10.83 27.782 6.311 25.335 12.255 25.15 12.712 24.306 6.864 21.141 6.452 21.901 10.972 24.347 5.028 24.532 4.571 25.376 10.419 28.542 10.83 27.782" fill="#7b003f" fill-rule="evenodd"/><rect x="10.97656" y="17.02602" width="0.89298" height="6.65026" transform="translate(-11.79207 17.96089) rotate(-54.81607)" fill="#7b003f"/><path d="M15.7434,20.0871l-.535-.9296,1.7868-2.0211.9941.4098.6039-.6831L12.089,14.1818l-.4153.4697,3.4658,6.1187ZM12.948,15.3466l3.2803,1.467-1.4342,1.6225Z" fill="#7b003f" fill-rule="evenodd"/><path d="M21.0575,14.9388a2.24878,2.24878,0,0,0,.2937-3.2584L18.4649,8.2363l-.6627.5553,2.8864,3.4442A1.45085,1.45085,0,1,1,18.468,14.097l-2.8866-3.4441-.6624.5553,2.8863,3.4439A2.24055,2.24055,0,0,0,21.0575,14.9388Z" fill="#7b003f" fill-rule="evenodd"/><path d="M24.3402,8.8105c.6197-.1472,1.2994-.2857,1.6974.3837a1.167,1.167,0,0,1-.5529,1.6541,1.40321,1.40321,0,0,1-2.0517-.5155l-.7431.4416a2.17826,2.17826,0,0,0,3.16.7629,2.01159,2.01159,0,0,0,.9017-2.8335c-.6744-1.1349-1.8319-.8893-2.9507-.6336-.6617.1503-1.2845.2551-1.6386-.3411a1.04461,1.04461,0,0,1,.5016-1.4799,1.155,1.155,0,0,1,1.71.4425l.7431-.4416a1.97779,1.97779,0,0,0-2.8591-.6658,1.85267,1.85267,0,0,0-.8096,2.6353C22.0934,9.3056,23.168,9.0872,24.3402,8.8105Z" fill="#7b003f" fill-rule="evenodd"/><path d="M34.02,8.0461a2.24868,2.24868,0,0,0,1.6188-2.8427L34.4415.8726l-.8334.2304,1.1976,4.3307a1.45084,1.45084,0,1,1-2.7926.7722L30.8155,1.8751l-.8331.2304,1.1973,4.3307A2.241,2.241,0,0,0,34.02,8.0461Z" fill="#7b003f" fill-rule="evenodd"/><polygon points="38.487 6.949 38.066 1.828 41.469 6.704 42.425 6.626 41.88 0 41.019 0.071 41.44 5.191 38.037 0.316 37.081 0.394 37.626 7.02 38.487 6.949" fill="#7b003f" fill-rule="evenodd"/><rect x="41.58336" y="3.00645" width="6.65107" height="0.8931" transform="translate(38.7719 48.0744) rotate(-86.56573)" fill="#7b003f"/><polygon points="49.242 7.366 52.779 1.278 51.883 1.105 49.205 5.908 48.499 0.451 47.603 0.278 48.626 7.247 49.242 7.366" fill="#7b003f" fill-rule="evenodd"/><polygon points="55.888 9.411 56.158 8.681 53.467 7.686 54.209 5.681 56.899 6.676 57.17 5.945 54.479 4.95 55.234 2.91 57.924 3.905 58.194 3.175 54.693 1.88 52.386 8.116 55.888 9.411" fill="#7b003f" fill-rule="evenodd"/><path d="M58.0222,10.4652,59.0695,8.624l1.189.6763.1005,2.4939.8587.4886-.0961-2.6556a2.19834,2.19834,0,0,0,2.3319-1.1216,2.21172,2.21172,0,0,0-.864-3.0926L60.5582,4.2577l-3.2874,5.7801Zm2.9024-5.1029,1.2799.7279a1.41055,1.41055,0,0,1,.4975,1.988,1.4052,1.4052,0,0,1-1.9629.5882l-1.2799-.7279Z" fill="#7b003f" fill-rule="evenodd"/><path d="M63.3867,11.2181a2.17848,2.17848,0,0,0,.3955,3.2274,2.01169,2.01169,0,0,0,2.9704-.1509c.8259-1.0303.1892-2.0279-.4434-2.9856-.3733-.5674-.6899-1.1135-.2561-1.6546a1.04476,1.04476,0,0,1,1.5622-.0501,1.15534,1.15534,0,0,1,.1865,1.7567l.6744.5408a1.97816,1.97816,0,0,0-.3809-2.9113,1.85312,1.85312,0,0,0-2.7525.1676c-.7904.9858-.2084,1.915.4626,2.916.3556.5284.7242,1.1163.2369,1.7242a1.16713,1.16713,0,0,1-1.7431.0634,1.40375,1.40375,0,0,1-.2381-2.1027Z" fill="#7b003f" fill-rule="evenodd"/><rect x="66.19511" y="14.50983" width="6.65124" height="0.89314" transform="translate(9.4689 53.04319) rotate(-44.5255)" fill="#7b003f"/><polygon points="69.552 19.963 70.093 20.638 74.676 16.971 75.756 18.321 76.364 17.834 73.67 14.467 73.062 14.954 74.136 16.296 69.552 19.963" fill="#7b003f" fill-rule="evenodd"/><polygon points="73.806 26.206 74.472 25.802 72.98 23.35 74.807 22.239 76.298 24.691 76.964 24.286 75.472 21.834 77.331 20.703 78.822 23.155 79.488 22.75 77.547 19.56 71.865 23.016 73.806 26.206" fill="#7b003f" fill-rule="evenodd"/><polygon points="75.101 28.868 75.454 29.657 80.811 27.256 81.518 28.834 82.229 28.515 80.465 24.58 79.754 24.898 80.457 26.467 75.101 28.868" fill="#7b003f" fill-rule="evenodd"/><path d="M76.5078,32.2168l1.0724.0173.8191,2.57-.8615.6435.2768.8686,5.6369-4.2092-.1905-.5971-7.03-.1617Zm5.5027.0306-2.9408,2.0638-.6577-2.0631Z" fill="#7b003f" fill-rule="evenodd"/><path d="M82.8986,36.4368c-1.2428.2276-1.4113,1.3112-1.5594,2.5069-.0774.6321-.1837,1.318-.95,1.4584a1.16733,1.16733,0,0,1-1.359-1.0938,1.40347,1.40347,0,0,1,1.1967-1.7449l-.1556-.8504a2.17851,2.17851,0,0,0-1.8142,2.6983,2.01172,2.01172,0,0,0,2.3439,1.8306c1.2988-.2375,1.4707-1.4088,1.6198-2.5465.0893-.6731.2075-1.2935.8896-1.4184a1.04508,1.04508,0,0,1,1.2137.9849,1.15544,1.15544,0,0,1-1.0093,1.45l.1555.8503a1.9778,1.9778,0,0,0,1.6182-2.4497A1.853,1.853,0,0,0,82.8986,36.4368Z" fill="#7b003f" fill-rule="evenodd"/><path d="M35.6777,21.158V15.6181h-.6886c0,.6648-.1899.9181-1.1791.9181v.5776h1.1237V21.158Z" fill="#7b003f" fill-rule="evenodd"/><polygon points="43.416 21.158 44.183 21.158 46.644 15.618 43.21 15.618 43.21 16.267 45.616 16.267 43.416 21.158" fill="#7b003f" fill-rule="evenodd"/><path d="M49.6404,21.158l1.6462-2.6434a2.10239,2.10239,0,0,0,.3324-1.1158,1.89547,1.89547,0,1,0-1.8836,1.8994.59039.59039,0,0,0,.3403-.0871L48.8094,21.158Zm.0871-2.5087a1.23642,1.23642,0,1,1,1.1713-1.2348A1.17557,1.17557,0,0,1,49.7275,18.6493Z" fill="#7b003f" fill-rule="evenodd"/><circle cx="30.4572" cy="18.48" r="0.8976" fill="#7b003f"/><circle cx="54.97748" cy="18.5144" r="0.89758" fill="#7b003f"/><circle cx="3.6231" cy="47.6949" r="0.8976" fill="#7b003f"/><circle cx="82.31033" cy="47.7011" r="0.89755" transform="translate(-10.99296 66.27211) rotate(-41.35046)" fill="#7b003f"/><path d="M40.14836,17.382a1.52483,1.52483,0,0,0-1.27515.56079V16.26733h2.65417V15.6181H38.20805v3.05457h.68152a1.18762,1.18762,0,0,1,2.26892.553,1.15525,1.15525,0,0,1-1.20276,1.28278,1.00284,1.00284,0,0,1-1.07935-.73236l-.66833-.00082A1.6122,1.6122,0,0,0,39.94792,21.158a1.84978,1.84978,0,0,0,1.916-1.95654A1.65381,1.65381,0,0,0,40.14836,17.382Z" fill="#7b003f"/></svg>